# xmcd
#
# Track frame offsets: 
#        150
#        14332
#        37254
#        55206
#        72486
#        94831
#        120648
#        135845
#        152602
#        172164
#
# Disc length: 2503 seconds
#
# Revision: 0
# Processed by: cddbd v1.5.1PL0 Copyright (c) Steve Scherf et al.
# Submitted via: ExactAudioCopy v0.95a5
#
DISCID=8709c50a
DTITLE=Syl Johnson - Bridge To Legacy
DYEAR=1998
DGENRE=Blues
TTITLE0=Who's Still In Love
TTITLE1=I Been Missin' U
TTITLE2=Half A Love
TTITLE3=Unconditional Love
TTITLE4=Midnight Woman
TTITLE5=Piece Of The Rock
TTITLE6=I Don't Know Why
TTITLE7=Let's Get It On Again
TTITLE8=They Can't See Your Good Side
TTITLE9=Sexy Wayz
EXTD=
EXTT0=
EXTT1=
EXTT2=
EXTT3=
EXTT4=
EXTT5=
EXTT6=
EXTT7=
EXTT8=
EXTT9=
PLAYORDER=
